<svg width="129" height="128" viewBox="0 0 129 128" fill="none" xmlns="http://www.w3.org/2000/svg">
<path d="M92.5534 83L91.4934 87L90.7234 89.88L90.0834 92.27C90.0355 92.444 89.9753 92.6145 89.9034 92.78C89.693 93.2802 89.3767 93.7288 88.9762 94.0948C88.5756 94.4608 88.1004 94.7355 87.5834 94.9C87.2925 94.9991 86.9899 95.0597 86.6834 95.08C85.847 95.1269 85.0192 94.8909 84.3334 94.41C84.2334 94.35 84.1334 94.27 84.0334 94.2L83.4834 93.75L82.7934 93.19L81.9634 92.51L80.4434 91.28L76.6434 88.2L76.0734 88.66L78.8534 94.83L79.2534 95.73L79.8834 97.13L80.0434 97.48L80.8334 99.24L80.9234 99.44L88.4534 116.18L93.7334 104.18C93.9301 103.76 94.2735 103.427 94.699 103.243C95.1245 103.058 95.6026 103.036 96.0434 103.18L108.533 107.18L98.9634 85.91L98.0734 83.91L97.7934 83.28L96.3334 83.22L92.5534 83Z" fill="#179999"/>
<path d="M85.1837 71.8601C86.4179 71.8601 87.6017 71.3705 88.4753 70.4987C89.349 69.6269 89.8411 68.4442 89.8438 67.21V62.55C89.8418 61.5362 89.5086 60.5507 88.8948 59.7438C88.281 58.9368 87.4203 58.3526 86.4437 58.0801C86.0348 57.9587 85.6103 57.8981 85.1837 57.9001H80.7237C80.4747 57.9001 80.2281 57.8508 79.9982 57.7552C79.7682 57.6596 79.5594 57.5195 79.3838 57.3429C79.2081 57.1664 79.0691 56.9569 78.9747 56.7264C78.8803 56.4959 78.8324 56.2491 78.8337 56V50.5401C78.8361 50.0309 78.6939 49.5316 78.4237 49.1C78.1807 48.7029 77.8397 48.3748 77.4335 48.1472C77.0272 47.9196 76.5694 47.8 76.1037 47.8H74.9837V71.8601H85.1837Z" fill="#FAF9F5"/>
<path d="M71.204 57.8999H66.224V71.8599H71.204V57.8999Z" fill="#179999"/>
<path d="M51.1728 83.5299C50.5424 83.565 49.913 83.4437 49.3407 83.1768C48.7685 82.9098 48.2711 82.5055 47.8928 81.9999C47.5178 81.4879 47.2781 80.8895 47.196 80.2602C47.1138 79.6309 47.1918 78.991 47.4228 78.3999L50.8528 69.5099L42.8528 64.3199C42.3226 63.9736 41.887 63.5006 41.5855 62.9436C41.284 62.3866 41.1261 61.7632 41.1261 61.1299C41.1261 60.4966 41.284 59.8732 41.5855 59.3162C41.887 58.7592 42.3226 58.2862 42.8528 57.9399L50.8528 52.7699L47.4328 43.8599C47.205 43.2682 47.1288 42.6288 47.2113 42.0001C47.2938 41.3714 47.5323 40.7734 47.9051 40.2604C48.2778 39.7475 48.773 39.336 49.3455 39.0634C49.9181 38.7909 50.5497 38.6659 51.1828 38.6999L60.6828 39.2199L63.1528 29.9999C63.3131 29.386 63.6245 28.8219 64.0588 28.3592C64.493 27.8966 65.0361 27.55 65.6387 27.3511C66.2412 27.1523 66.884 27.1075 67.5083 27.2208C68.1326 27.3341 68.7186 27.602 69.2128 27.9999L76.6028 33.9999L77.8228 35.4699L76.6228 33.9999L79.2428 31.8699L67.6928 23.6199C66.7375 22.9367 65.5924 22.5693 64.4178 22.5693C63.2433 22.5693 62.0982 22.9367 61.1428 23.6199L33.7628 43.1799C33.0396 43.6949 32.4487 44.3739 32.0385 45.1613C31.6282 45.9487 31.4104 46.8221 31.4028 47.7099L31.1128 80.1199C31.1054 81.0368 31.3208 81.9419 31.7407 82.7571C32.1605 83.5724 32.7721 84.2734 33.5228 84.7999L46.8328 94.0699L51.5828 83.5099L51.1728 83.5299Z" fill="#FAF9F5"/>
<path d="M66.8237 95.05C65.9873 95.048 65.1747 94.7708 64.5115 94.2611C63.8482 93.7515 63.3711 93.0377 63.1537 92.23L60.6937 83L55.8237 83.26L49.9837 96.26L61.1437 104C62.0938 104.668 63.2271 105.027 64.3887 105.027C65.5504 105.027 66.6837 104.668 67.6338 104L76.0938 98L73.0238 91.16L69.2137 94.2C68.5388 94.7502 67.6945 95.0504 66.8237 95.05Z" fill="#179999"/>
<path d="M83.9729 32.9299L82.4429 34.1599L79.9029 36.2199L79.0129 36.9399C78.3315 37.4844 77.4851 37.7806 76.6129 37.7799C75.7444 37.7768 74.9024 37.4808 74.2229 36.9399L66.8329 30.9399L64.3329 40.1399C64.1123 40.9855 63.6092 41.7302 62.9071 42.2504C62.2049 42.7706 61.346 43.0351 60.4729 42.9999L50.9629 42.4899L54.3329 51.3599C54.6412 52.1735 54.6626 53.068 54.3935 53.8954C54.1244 54.7227 53.5809 55.4335 52.8529 55.9099L44.8529 61.0799L52.8529 66.2899C53.5823 66.7652 54.1269 67.4758 54.3962 68.3036C54.6655 69.1315 54.6431 70.0266 54.3329 70.8399L50.9129 79.7299L53.3329 79.6099L57.5729 79.3899L60.4729 79.2399C61.3411 79.2008 62.1967 79.4588 62.8985 79.9715C63.6003 80.4842 64.1063 81.2209 64.3329 82.0599L66.7829 91.2599L71.3829 87.5299L72.9029 86.3099L74.2029 85.3099L74.4329 85.1399C75.0668 84.6996 75.8211 84.4657 76.5929 84.4699C77.4651 84.4693 78.3115 84.7655 78.9929 85.3099L81.9929 87.7699L83.5429 88.9999L85.0629 90.2299L85.9629 90.9599L86.4029 91.3199L86.6229 90.4899L88.8829 82.1099C89.1082 81.2682 89.6153 80.5292 90.3195 80.016C91.0237 79.5028 91.8826 79.2466 92.7529 79.2899L96.0429 79.4699L97.3929 79.5399H98.1629L99.2829 79.5999L100.283 79.6599H101.163L102.253 79.7199L101.163 76.8799L99.3329 71.9999L98.9029 70.8699C98.5801 70.0583 98.5461 69.1604 98.8064 68.3266C99.0667 67.4928 99.6056 66.7738 100.333 66.2899L101.173 65.7399L108.333 61.1199L101.173 56.4599L100.333 55.9099C99.6035 55.4347 99.0589 54.7241 98.7896 53.8962C98.5203 53.0684 98.5427 52.1733 98.8529 51.3599L99.3329 50.2399L101.033 45.8499L102.333 42.4699L99.6929 42.5999L97.3329 42.7199L94.5929 42.8599L92.7229 42.9599C91.8522 43.0052 90.9925 42.7496 90.2878 42.2362C89.5832 41.7227 89.0766 40.9826 88.8529 40.1399L88.3929 38.4299L87.6329 35.5599L86.8729 32.6999L86.4029 30.9399L85.4729 31.6999L83.9729 32.9299ZM87.6229 75.2799C86.8313 75.5177 86.0094 75.6389 85.1829 75.6399H64.3329C63.8316 75.6399 63.3509 75.4408 62.9965 75.0864C62.642 74.7319 62.4429 74.2512 62.4429 73.7499V55.9999C62.4482 55.5022 62.6496 55.0266 63.0035 54.6764C63.3574 54.3263 63.8351 54.1299 64.3329 54.1299H71.2029V45.9099C71.1982 45.8902 71.1982 45.8697 71.2029 45.8499C71.2082 45.5149 71.3039 45.1875 71.4799 44.9023C71.6559 44.6171 71.9057 44.3848 72.2029 44.2299C72.4733 44.0951 72.7707 44.0233 73.0729 44.0199H76.0729C77.0737 44.0191 78.0611 44.2498 78.958 44.6939C79.8549 45.138 80.6369 45.7835 81.2429 46.5799C81.7554 47.2434 82.1325 48.0011 82.3529 48.8099L82.4729 49.2999C82.5455 49.7093 82.5823 50.1242 82.5829 50.5399V54.1299H85.1529C85.6997 54.1289 86.2454 54.1791 86.7829 54.2799C87.652 54.4519 88.4888 54.7589 89.2629 55.1899C90.1373 55.6845 90.9189 56.3274 91.5729 57.0899C92.7578 58.4643 93.4602 60.1888 93.5729 61.9999C93.5828 62.1831 93.5828 62.3667 93.5729 62.5499V67.2099C93.5723 67.8121 93.5052 68.4125 93.3729 68.9999C93.0518 70.4679 92.3451 71.8236 91.3256 72.9275C90.3061 74.0314 89.0107 74.8434 87.5729 75.2799H87.6229Z" fill="#D6B66B"/>
<path d="M113.704 109.47L102.034 83.5299C102.667 83.5648 103.299 83.4402 103.872 83.1677C104.444 82.8951 104.939 82.4833 105.311 81.9698C105.683 81.4564 105.921 80.8578 106.002 80.2289C106.082 79.5999 106.004 78.9608 105.774 78.3699L102.354 69.4599L110.354 64.2899C110.884 63.9436 111.32 63.4705 111.621 62.9136C111.923 62.3566 112.081 61.7332 112.081 61.0999C112.081 60.4665 111.923 59.8432 111.621 59.2862C111.32 58.7292 110.884 58.2562 110.354 57.9099L102.354 52.7199L105.774 43.8299C106.006 43.2396 106.086 42.6002 106.006 41.9709C105.925 41.3416 105.687 40.7428 105.314 40.2299C104.94 39.7181 104.444 39.3075 103.871 39.0351C103.299 38.7628 102.667 38.6373 102.034 38.6699L95.724 38.9999L91.724 36.1499L90.084 29.9999C89.923 29.3862 89.6094 28.8232 89.1723 28.3634C88.7351 27.9035 88.1888 27.5617 87.584 27.3699C86.9811 27.1733 86.3386 27.1307 85.7151 27.246C85.0915 27.3613 84.5067 27.6307 84.014 28.0299L82.334 29.3999L69.934 20.5499C68.3385 19.4083 66.4258 18.7944 64.464 18.7944C62.5022 18.7944 60.5895 19.4083 58.994 20.5499L31.564 40.0999C30.3576 40.9646 29.3721 42.1017 28.6875 43.4187C28.0029 44.7357 27.6386 46.1956 27.624 47.6799L27.334 80.0899C27.3161 81.6187 27.671 83.1289 28.3679 84.4897C29.0649 85.8505 30.083 87.021 31.334 87.8999L45.224 97.5799L46.804 98.6799L48.384 99.7699L58.944 107.14C60.5396 108.251 62.4395 108.841 64.3835 108.83C66.3276 108.819 68.2208 108.208 69.804 107.08L74.944 103.4L77.644 101.48L77.764 101.74L78.764 104.04L86.664 121.6C86.8123 121.932 87.0536 122.215 87.3587 122.414C87.6639 122.612 88.0199 122.719 88.384 122.72C88.7487 122.715 89.1044 122.607 89.4092 122.406C89.714 122.206 89.9551 121.923 90.104 121.59L96.404 107.24L111.324 112.04C111.671 112.15 112.043 112.158 112.395 112.062C112.746 111.967 113.063 111.771 113.306 111.499C113.549 111.228 113.708 110.892 113.765 110.532C113.821 110.172 113.772 109.803 113.624 109.47H113.704ZM82.444 34.1599L83.974 32.9299L85.504 31.6999L86.434 30.9399L86.904 32.6999L87.664 35.5599L88.424 38.4299L88.884 40.1399C89.0999 40.99 89.6032 41.7392 90.3086 42.2605C91.014 42.7818 91.878 43.043 92.754 42.9999L94.624 42.8999L97.334 42.7199L99.614 42.5999L102.254 42.4699L100.954 45.8499L99.334 50.2399L98.904 51.3599C98.589 52.1678 98.559 53.059 98.819 53.8863C99.079 54.7136 99.6134 55.4274 100.334 55.9099L101.174 56.4599L108.334 61.1199L101.174 65.7399L100.334 66.2899C99.6046 66.7651 99.06 67.4758 98.7907 68.3036C98.5214 69.1314 98.5438 70.0265 98.854 70.8399L99.334 71.9999L101.224 76.9399L102.314 79.7799L101.224 79.7199H100.344L99.344 79.6599L98.224 79.5999H97.454L96.104 79.5299L92.814 79.3499C91.9437 79.3065 91.0849 79.5628 90.3806 80.0759C89.6764 80.5891 89.1693 81.3282 88.944 82.1699L86.684 90.5499L86.464 91.3799L86.024 91.0199L85.124 90.2899L83.544 88.9999L82.034 87.7199L79.034 85.2599C78.3526 84.7155 77.5062 84.4192 76.634 84.4199C75.8622 84.4156 75.1079 84.6496 74.474 85.0899L74.244 85.2599L72.944 86.2599L71.424 87.4799L66.824 91.2099L64.334 82.0599C64.1067 81.2174 63.5977 80.4781 62.8918 79.965C62.1859 79.4519 61.3256 79.196 60.454 79.2399L57.554 79.3899L53.334 79.6099L50.954 79.7299L54.334 70.8399C54.6442 70.0265 54.6666 69.1314 54.3973 68.3036C54.128 67.4758 53.5834 66.7651 52.854 66.2899L44.854 61.0799L52.854 55.9099C53.582 55.4334 54.1255 54.7227 54.3946 53.8953C54.6637 53.0679 54.6423 52.1735 54.334 51.3599L50.924 42.4499L60.434 42.9599C61.3085 43.0066 62.1726 42.7521 62.8823 42.239C63.5919 41.7258 64.1043 40.985 64.334 40.1399L66.814 30.9299L74.204 36.9299C74.8835 37.4708 75.7255 37.7667 76.594 37.7699C77.4662 37.7706 78.3126 37.4743 78.994 36.9299L79.884 36.2099L82.444 34.1599ZM46.834 94.0699L33.524 84.7999C32.7732 84.2734 32.1616 83.5723 31.7418 82.7571C31.322 81.9419 31.1066 81.0368 31.114 80.1199L31.404 47.7099C31.4116 46.8221 31.6294 45.9487 32.0396 45.1613C32.4498 44.3739 33.0408 43.6949 33.764 43.1799L61.144 23.6199C62.0994 22.9367 63.2445 22.5693 64.419 22.5693C65.5935 22.5693 66.7386 22.9367 67.694 23.6199L79.244 31.8699L76.624 33.9999L77.824 35.4699L76.604 33.9999L69.214 27.9999C68.7198 27.6019 68.1338 27.3341 67.5095 27.2208C66.8852 27.1074 66.2424 27.1523 65.6399 27.3511C65.0373 27.55 64.4941 27.8966 64.0599 28.3592C63.6257 28.8219 63.3143 29.3859 63.154 29.9999L60.674 39.2199L51.174 38.6999C50.5408 38.6659 49.9092 38.7909 49.3367 39.0634C48.7642 39.336 48.269 39.7475 47.8962 40.2604C47.5235 40.7734 47.285 41.3714 47.2025 42.0001C47.12 42.6288 47.1962 43.2682 47.424 43.8599L50.844 52.7699L42.844 57.9399C42.3137 58.2862 41.8781 58.7592 41.5766 59.3162C41.2752 59.8732 41.1173 60.4965 41.1173 61.1299C41.1173 61.7632 41.2752 62.3866 41.5766 62.9436C41.8781 63.5005 42.3137 63.9736 42.844 64.3199L50.844 69.5099L47.414 78.3999C47.183 78.991 47.105 79.6309 47.1871 80.2602C47.2693 80.8895 47.509 81.4879 47.884 81.9999C48.2589 82.511 48.7549 82.9212 49.3273 83.1934C49.8998 83.4657 50.5309 83.5916 51.164 83.5599H51.574L46.834 94.0699ZM67.634 104C66.6839 104.668 65.5506 105.027 64.389 105.027C63.2274 105.027 62.0941 104.668 61.144 104L49.984 96.2699L55.824 83.2699L60.694 82.9999L63.154 92.1999C63.312 92.8154 63.6222 93.3813 64.0561 93.8456C64.4901 94.3098 65.0337 94.6575 65.6372 94.8567C66.2407 95.0559 66.8845 95.1001 67.5095 94.9853C68.1345 94.8705 68.7207 94.6004 69.214 94.1999L73.024 91.1199L76.094 97.9999L67.634 104ZM96.024 103.12C95.5833 102.976 95.1051 102.998 94.6797 103.182C94.2542 103.367 93.9107 103.7 93.714 104.12L88.434 116.12L80.904 99.4399L80.814 99.2399L80.024 97.4799L79.864 97.1299L79.234 95.7299L78.834 94.8299L76.054 88.6599L76.624 88.1999L80.424 91.2799L81.944 92.5099L82.774 93.1899L83.464 93.7499L84.014 94.1999C84.114 94.2699 84.214 94.3499 84.314 94.4099C85.0104 94.881 85.8456 95.103 86.684 95.0399C86.9906 95.0195 87.2932 94.959 87.584 94.8599C88.1011 94.6954 88.5763 94.4207 88.9768 94.0546C89.3773 93.6886 89.6937 93.2401 89.904 92.7399C89.976 92.5743 90.0361 92.4039 90.084 92.2299L90.724 89.8399L91.494 86.9999L92.554 82.9999L96.284 83.2099L97.794 83.2899L98.074 83.9199L98.964 85.9199L108.514 107.15L96.024 103.12Z" fill="#0B7373"/>
<path d="M73.0927 44C72.7906 44.0034 72.4931 44.0752 72.2227 44.21C71.9256 44.3649 71.6758 44.5972 71.4998 44.8824C71.3237 45.1675 71.228 45.4949 71.2227 45.83C71.2181 45.8497 71.2181 45.8703 71.2227 45.89V54.11H64.3327C63.8315 54.11 63.3507 54.3091 62.9963 54.6636C62.6419 55.018 62.4427 55.4987 62.4427 56V73.75C62.4427 74.2513 62.6419 74.732 62.9963 75.0864C63.3507 75.4409 63.8315 75.64 64.3327 75.64H85.1827C86.0092 75.639 86.8312 75.5177 87.6227 75.28C89.0606 74.8435 90.356 74.0314 91.3755 72.9276C92.395 71.8237 93.1017 70.4679 93.4227 69C93.5551 68.4125 93.6222 67.8122 93.6227 67.21V62.55C93.6327 62.3668 93.6327 62.1832 93.6227 62C93.51 60.1889 92.8076 58.4644 91.6227 57.09C90.9747 56.3293 90.2 55.6865 89.3327 55.19C88.5587 54.759 87.7219 54.4519 86.8527 54.28C86.3153 54.1792 85.7696 54.129 85.2227 54.13H82.6127V50.54C82.6122 50.1243 82.5754 49.7093 82.5027 49.3L82.3827 48.81C82.1624 48.0011 81.7852 47.2435 81.2727 46.58C80.6688 45.7799 79.8877 45.1305 78.9907 44.6829C78.0937 44.2353 77.1052 44.0015 76.1027 44H73.0927ZM71.2027 71.86H66.2027V57.86H71.2027V71.86ZM78.4227 49.1C78.6929 49.5315 78.8351 50.0309 78.8327 50.54V56C78.8327 56.5013 79.0319 56.982 79.3863 57.3364C79.7407 57.6909 80.2215 57.89 80.7227 57.89H85.1827C85.6093 57.888 86.0338 57.9487 86.4427 58.07C87.4193 58.3425 88.28 58.9268 88.8938 59.7337C89.5076 60.5407 89.8408 61.5261 89.8427 62.54V67.2C89.8401 68.4342 89.348 69.6169 88.4743 70.4887C87.6007 71.3604 86.4169 71.85 85.1827 71.85H74.9827V47.8H76.1027C76.5684 47.8 77.0262 47.9195 77.4324 48.1471C77.8387 48.3748 78.1796 48.7028 78.4227 49.1Z" fill="#0B7373"/>
</svg>
