<svg width="128" height="128" viewBox="0 0 128 128" fill="none" xmlns="http://www.w3.org/2000/svg">
<path d="M52.7696 98.8101L60.7696 104.42C61.7197 105.088 62.853 105.447 64.0146 105.447C65.1762 105.447 66.3095 105.088 67.2596 104.42L94.6996 84.8201L94.9996 84.5801H68.1496C64.2669 84.5855 60.5287 86.0527 57.6788 88.6895C54.8288 91.3263 53.0762 94.9395 52.7696 98.8101Z" fill="#FAF9F5"/>
<path d="M63.6208 51.0899C64.1332 51.0921 64.6277 50.9024 65.0072 50.5581C65.3866 50.2139 65.6234 49.74 65.6708 49.2299L67.2308 33.6499C62.7617 34.916 58.6675 37.2497 55.3008 40.4499L61.9108 50.1899C62.1005 50.4683 62.3556 50.6959 62.6538 50.8528C62.9519 51.0098 63.2839 51.0912 63.6208 51.0899Z" fill="#179999"/>
<path d="M84.7298 49.2299C84.7675 49.6532 84.9345 50.0545 85.2082 50.3796C85.4818 50.7046 85.8489 50.9375 86.2595 51.0467C86.6702 51.1559 87.1045 51.1361 87.5034 50.99C87.9024 50.8439 88.2468 50.5785 88.4897 50.2299L93.5597 42.7599L94.6297 41.1999L95.1097 40.4899C92.1809 37.7032 88.6941 35.5696 84.8797 34.2299C84.3297 34.0299 83.7597 33.8499 83.1797 33.6899L83.3597 35.4599L84.7298 49.2299Z" fill="#179999"/>
<path d="M54.7201 36C58.4998 32.9594 62.9102 30.8002 67.6301 29.68L68.1401 24.57L67.3601 24C66.4047 23.3168 65.2596 22.9495 64.0851 22.9495C62.9106 22.9495 61.7654 23.3168 60.8101 24L49.5801 32L53.1701 37.3C53.6701 36.86 54.1901 36.42 54.7201 36Z" fill="#FAF9F5"/>
<path d="M39.0595 69.72C39.0617 68.4637 39.4629 67.2404 40.2051 66.2268C40.9474 65.2131 41.9924 64.4614 43.1895 64.08C42.9509 60.07 42.2974 56.0954 41.2395 52.22L37.9995 40.29L33.4295 43.55C32.7067 44.0677 32.1162 44.7487 31.7062 45.5376C31.2961 46.3265 31.078 47.201 31.0695 48.09L30.7795 80.5C30.7721 81.417 30.9876 82.322 31.4074 83.1373C31.8272 83.9525 32.4388 84.6535 33.1895 85.18L49.2895 96.39C50.1346 92.0061 52.4788 88.0528 55.92 85.2083C59.3612 82.3638 63.6849 80.8052 68.1495 80.8H96.9995C97.0095 80.6102 97.0095 80.4199 96.9995 80.23V75.65H44.9995C43.4259 75.65 41.9165 75.0256 40.8029 73.9138C39.6892 72.802 39.0622 71.2937 39.0595 69.72Z" fill="#FAF9F5"/>
<path d="M105.41 67.5701H78.6797L76.5397 69.7101C76.1814 70.0605 75.7008 70.2577 75.1997 70.2601C74.9527 70.2603 74.7082 70.2118 74.48 70.1174C74.2518 70.023 74.0444 69.8846 73.8697 69.7101L71.7597 67.6001H44.9997C44.4295 67.6001 43.8826 67.8266 43.4794 68.2298C43.0762 68.633 42.8497 69.1799 42.8497 69.7501C42.8576 70.3151 43.0876 70.8543 43.4899 71.251C43.8923 71.6478 44.4346 71.8702 44.9997 71.8701H105.42C105.991 71.8701 106.539 71.6439 106.943 71.241C107.348 70.8381 107.577 70.2912 107.58 69.7201C107.579 69.1773 107.372 68.6551 107 68.2601C106.797 68.041 106.551 67.8666 106.277 67.7478C106.004 67.629 105.708 67.5685 105.41 67.5701Z" fill="#D6B66B"/>
<path d="M104.869 32.81L99.8692 40.09L98.7692 41.71L98.5992 42L97.7392 43.27L97.4892 43.63L96.3392 45.33L91.6192 52.33C91.5457 52.4414 91.4655 52.5483 91.3792 52.65C90.7048 53.5179 89.7955 54.1739 88.7592 54.54C87.4684 55.0161 86.05 55.0161 84.7592 54.54C83.724 54.1719 82.8151 53.5163 82.1392 52.65C81.4643 51.7823 81.0452 50.7432 80.9292 49.65L79.2892 32.83V32.5L79.1292 30.9L78.9992 30L78.8992 29L78.7492 27.51L78.1792 21.79C78.1792 20.9944 77.8631 20.2313 77.3005 19.6687C76.7379 19.1061 75.9749 18.79 75.1792 18.79C74.3836 18.79 73.6205 19.1061 73.0579 19.6687C72.4953 20.2313 72.1792 20.9944 72.1792 21.79L72.0792 22.79L71.8592 24.95L71.6392 27.12L71.4892 29L71.3092 30.91L71.1092 32.84L69.4392 49.6C69.3193 50.694 68.8968 51.7329 68.2192 52.6C67.4619 53.5687 66.4176 54.2731 65.2358 54.6126C64.054 54.952 62.7952 54.9091 61.6392 54.49C60.6021 54.13 59.6872 53.4855 58.9992 52.63L58.7592 52.31L52.6492 43.31L51.5692 41.72L50.4692 40.1L46.4692 34.23L45.4692 32.82L45.3692 32.67C44.9881 32.1493 44.5255 31.6934 43.9992 31.32C43.0109 30.6211 41.8296 30.2472 40.6192 30.25H39.1192L40.1192 34.06L40.6492 36.06L41.1792 38L44.4692 50.13L44.7892 51.29C44.9892 52.04 45.1792 52.8 45.3592 53.56C45.4392 53.9 45.5092 54.24 45.5792 54.56C45.7192 55.19 45.8492 55.82 45.9592 56.45C46.4588 58.8726 46.8062 61.3241 46.9992 63.79H67.9992L65.8392 61.63C65.6621 61.4546 65.5215 61.2459 65.4254 61.016C65.3292 60.786 65.2796 60.5393 65.2792 60.29C65.2755 59.8102 65.4583 59.3476 65.7892 59L68.3292 56.45L72.1092 52.67L73.8692 50.91C74.2248 50.5589 74.7044 50.362 75.2042 50.362C75.704 50.362 76.1836 50.5589 76.5392 50.91L84.6192 59C84.7955 59.1748 84.9354 59.3828 85.0309 59.6119C85.1263 59.841 85.1755 60.0868 85.1755 60.335C85.1755 60.5833 85.1263 60.829 85.0309 61.0582C84.9354 61.2873 84.7955 61.4953 84.6192 61.67L82.4592 63.83H103.459C103.611 61.3547 103.908 58.8905 104.349 56.45C104.469 55.82 104.589 55.19 104.729 54.56C104.799 54.22 104.879 53.88 104.959 53.56C105.129 52.8 105.319 52.04 105.529 51.29L105.839 50.13L111.229 30.3H109.719C108.767 30.2907 107.828 30.5145 106.982 30.952C106.137 31.3896 105.411 32.0275 104.869 32.81Z" fill="#D6B66B"/>
<path d="M80.6091 60.2899L76.7291 56.4099L75.1991 54.8799L73.6691 56.4099L69.7891 60.2899L75.1991 65.6999L80.6091 60.2899Z" fill="#179999"/>
<path d="M113.691 26.46H109.691C108.113 26.4537 106.559 26.8353 105.164 27.5711C103.769 28.307 102.576 29.3747 101.691 30.68L97.1807 37.32C96.6807 36.86 96.1807 36.42 95.6407 35.99C91.8597 32.9513 87.4498 30.7924 82.7307 29.67L82.0007 21.4C81.8324 19.8229 81.1165 18.3548 79.9776 17.251C78.8387 16.1472 77.3489 15.4776 75.7673 15.3587C74.1858 15.2398 72.6126 15.6791 71.3215 16.6002C70.0303 17.5213 69.103 18.8658 68.7007 20.4C67.1493 19.5438 65.3877 19.1431 63.6186 19.2439C61.8495 19.3448 60.1448 19.9431 58.7007 20.97L47.2507 29C45.4688 27.3429 43.1241 26.4243 40.6907 26.43H36.6907C36.3991 26.4292 36.1112 26.4955 35.8494 26.6238C35.5875 26.7522 35.3587 26.939 35.1807 27.17C35.0079 27.4019 34.8894 27.6697 34.834 27.9536C34.7786 28.2374 34.7878 28.5301 34.8607 28.81L37.0007 36.39L31.2807 40.48C30.0737 41.3442 29.0878 42.4811 28.4031 43.7982C27.7185 45.1154 27.3545 46.5756 27.3407 48.06L27.0007 80.47C26.9828 81.9988 27.3377 83.5089 28.0346 84.8698C28.7316 86.2306 29.7497 87.4011 31.0007 88.28L48.9107 100.76L50.8007 102.08L52.6907 103.39L58.6107 107.52C60.209 108.624 62.1078 109.21 64.0502 109.199C65.9925 109.188 67.8847 108.581 69.4707 107.46L96.9007 87.89C97.174 87.69 97.434 87.48 97.6807 87.26C98.4342 86.596 99.0727 85.8121 99.5707 84.94C100.234 83.8066 100.65 82.5456 100.791 81.24C100.791 80.9 100.791 80.57 100.791 80.24V75.65H105.361C106.78 75.6603 108.155 75.1607 109.236 74.2421C110.318 73.3234 111.033 72.047 111.253 70.6451C111.472 69.2433 111.18 67.8093 110.431 66.6043C109.682 65.3993 108.525 64.5035 107.171 64.08C107.411 60.0708 108.061 56.0967 109.111 52.22L115.461 28.84C115.538 28.5602 115.549 28.2664 115.494 27.9815C115.439 27.6967 115.318 27.4285 115.142 27.198C114.966 26.9674 114.738 26.7809 114.478 26.6528C114.217 26.5248 113.931 26.4588 113.641 26.46H113.691ZM84.8707 34.19C88.6851 35.5296 92.1718 37.6633 95.1007 40.45L94.6207 41.16L93.5507 42.72L88.4807 50.19C88.2377 50.5386 87.8934 50.8039 87.4944 50.95C87.0954 51.0962 86.6611 51.116 86.2505 51.0067C85.8399 50.8975 85.4728 50.6646 85.1991 50.3396C84.9254 50.0146 84.7584 49.6132 84.7207 49.19L83.3507 35.42L83.1707 33.65C83.7507 33.81 84.3207 34 84.8707 34.19ZM60.8107 24C61.7661 23.3168 62.9112 22.9494 64.0857 22.9494C65.2602 22.9494 66.4053 23.3168 67.3607 24L68.1407 24.56L67.6307 29.67C62.91 30.7932 58.4995 32.9557 54.7207 36C54.1907 36.43 53.7207 36.87 53.1707 37.33L49.5807 32L60.8107 24ZM67.2307 33.65L65.6707 49.23C65.633 49.6532 65.466 50.0546 65.1923 50.3796C64.9186 50.7046 64.5515 50.9375 64.1409 51.0467C63.7303 51.156 63.296 51.1362 62.897 50.99C62.498 50.8439 62.1537 50.5786 61.9107 50.23L55.3007 40.45C58.6673 37.2497 62.7616 34.916 67.2307 33.65ZM94.7007 84.82L67.3007 104.38C66.3506 105.048 65.2173 105.407 64.0557 105.407C62.8941 105.407 61.7608 105.048 60.8107 104.38L52.8107 98.77C53.1262 94.9135 54.8774 91.3158 57.7179 88.6882C60.5583 86.0607 64.2813 84.5946 68.1507 84.58H95.0007L94.7007 84.82ZM97.0607 80.23C97.0707 80.4199 97.0707 80.6101 97.0607 80.8H68.1507C63.6861 80.8052 59.3623 82.3637 55.9212 85.2082C52.48 88.0528 50.1358 92.006 49.2907 96.39L33.1907 85.18C32.4399 84.6535 31.8283 83.9524 31.4085 83.1372C30.9887 82.322 30.7733 81.4169 30.7807 80.5L31.0707 48.09C31.0791 47.2009 31.2972 46.3264 31.7073 45.5375C32.1174 44.7486 32.7079 44.0677 33.4307 43.55L38.0007 40.29L41.2407 52.22C42.2986 56.0954 42.952 60.0699 43.1907 64.08C41.8365 64.5035 40.6794 65.3993 39.9302 66.6043C39.181 67.8093 38.8895 69.2433 39.1088 70.6451C39.3281 72.047 40.0436 73.3234 41.125 74.2421C42.2065 75.1607 43.5818 75.6603 45.0007 75.65H97.0607V80.23ZM107.571 69.72C107.568 70.2911 107.339 70.838 106.935 71.2409C106.53 71.6438 105.982 71.87 105.411 71.87H45.0007C44.5824 71.8703 44.1732 71.7486 43.823 71.5199C43.4729 71.2911 43.1971 70.9652 43.0294 70.582C42.8616 70.1989 42.8094 69.7751 42.8789 69.3627C42.9484 68.9502 43.1367 68.567 43.4207 68.26C43.6233 68.0436 43.8679 67.8708 44.1396 67.7521C44.4113 67.6335 44.7043 67.5715 45.0007 67.57H71.7307L73.8407 69.68C74.0154 69.8545 74.2228 69.9929 74.451 70.0873C74.6792 70.1817 74.9238 70.2302 75.1707 70.23C75.6718 70.2276 76.1524 70.0303 76.5107 69.68L78.6507 67.54H105.381C105.677 67.5397 105.971 67.6009 106.243 67.7197C106.515 67.8384 106.759 68.0122 106.961 68.23C107.351 68.6277 107.57 69.1626 107.571 69.72ZM69.7907 60.29L73.6807 56.41L75.2007 54.88L76.7307 56.41L80.6107 60.29L75.2007 65.7L69.7907 60.29ZM105.791 50.07L105.481 51.23C105.271 51.98 105.081 52.74 104.911 53.5C104.831 53.84 104.751 54.18 104.681 54.5C104.541 55.13 104.421 55.76 104.301 56.39C103.86 58.8304 103.562 61.2947 103.411 63.77H82.4107L84.5707 61.61C84.747 61.4352 84.8869 61.2272 84.9824 60.9981C85.0779 60.769 85.127 60.5232 85.127 60.275C85.127 60.0268 85.0779 59.781 84.9824 59.5518C84.8869 59.3227 84.747 59.1148 84.5707 58.94L76.4907 50.85C76.1351 50.4988 75.6555 50.3019 75.1557 50.3019C74.6559 50.3019 74.1763 50.4988 73.8207 50.85L72.0607 52.61L68.2807 56.39L65.7907 59C65.613 59.1728 65.4719 59.3797 65.3757 59.6081C65.2795 59.8366 65.2302 60.0821 65.2307 60.33C65.2311 60.5792 65.2808 60.8259 65.3769 61.0559C65.473 61.2859 65.6136 61.4946 65.7907 61.67L68.0007 63.79H47.0007C46.8589 61.3138 46.5617 58.8489 46.1107 56.41C46.0007 55.78 45.8707 55.15 45.7307 54.52C45.6607 54.18 45.5907 53.84 45.5107 53.52C45.3307 52.76 45.1407 52 44.9407 51.25L44.6207 50.09L41.2807 37.94L40.7507 36L40.2207 34L39.2207 30.19H40.7207C41.9311 30.1871 43.1124 30.5611 44.1007 31.26C44.627 31.6334 45.0896 32.0892 45.4707 32.61L45.5707 32.76L46.5707 34.17L50.5707 40.04L51.6707 41.66L52.7507 43.25L58.8607 52.25L59.1007 52.57C59.7793 53.4334 60.6873 54.0884 61.7207 54.46C62.8768 54.8775 64.1352 54.9196 65.3167 54.5803C66.4981 54.2409 67.5424 53.5374 68.3007 52.57C68.9783 51.7028 69.4008 50.6639 69.5207 49.57L71.1907 32.8L71.3907 30.87L71.4907 29L71.6807 27.1L71.9007 24.93L72.1207 22.77L72.2207 21.77C72.2207 20.9743 72.5368 20.2113 73.0994 19.6487C73.662 19.0861 74.4251 18.77 75.2207 18.77C76.0164 18.77 76.7794 19.0861 77.342 19.6487C77.9046 20.2113 78.2207 20.9743 78.2207 21.77L78.7907 27.49L78.9107 29L79.0107 30L79.1007 30.9L79.2607 32.5V32.83L81.0007 49.6C81.1167 50.6932 81.5358 51.7322 82.2107 52.6C82.8866 53.4662 83.7955 54.1218 84.8307 54.49C86.1215 54.966 87.5399 54.966 88.8307 54.49C89.867 54.1238 90.7763 53.4678 91.4507 52.6C91.537 52.4982 91.6172 52.3914 91.6907 52.28L96.4107 45.28L97.5607 43.58L97.8107 43.22L98.6007 42L98.8207 41.68L99.9207 40.06L104.921 32.78C105.455 31.9877 106.176 31.339 107.02 30.8909C107.864 30.4427 108.805 30.2089 109.761 30.21H111.271L105.791 50.07Z" fill="#0B7373"/>
</svg>
