<svg width="129" height="128" viewBox="0 0 129 128" fill="none" xmlns="http://www.w3.org/2000/svg">
<path d="M81.5171 84C79.9562 85.9272 78.0161 87.5133 75.8171 88.66V98.47L95.4471 84.47C96.158 83.9627 96.7364 83.2916 97.1332 82.5136C97.5301 81.7355 97.7338 80.8734 97.7271 80V62L91.2271 69C89.6836 70.6811 87.6515 71.8354 85.4171 72.3C85.4171 72.59 85.4171 72.89 85.4171 73.19C85.3656 77.1286 83.9921 80.9357 81.5171 84Z" fill="#FAF9F5"/>
<path d="M64.9364 23.0001C63.8013 22.9945 62.6928 23.3442 61.7664 24.0001L35.0964 43.0001H69.4564C71.1423 43.0027 72.7585 43.6736 73.9507 44.8658C75.1428 46.0579 75.8137 47.6741 75.8164 49.3601V53.3001L90.8164 40.1701L68.1064 24.0001C67.1799 23.3442 66.0715 22.9945 64.9364 23.0001Z" fill="#FAF9F5"/>
<path d="M66.7372 91.7501C64.556 92.1454 62.344 92.3462 60.1272 92.3501C57.3651 92.4231 54.612 92.0032 51.9972 91.1101C51.1053 90.7584 50.325 90.1722 49.7388 89.4136C49.1527 88.6549 48.7824 87.7519 48.6672 86.8001C48.5443 85.8383 48.6806 84.8611 49.0621 83.9697C49.4437 83.0783 50.0565 82.3051 50.8372 81.7301L54.6672 78.8601C55.2195 78.4649 55.6587 77.9321 55.9411 77.3146C56.2236 76.697 56.3395 76.0163 56.2772 75.3401C56.0495 73.2328 56.278 71.1012 56.9472 69.0901H43.2272V91.1601L61.7672 104.07C62.6856 104.719 63.7826 105.068 64.9072 105.068C66.0319 105.068 67.1289 104.719 68.0472 104.07L72.0472 101.22V90.3601C70.3188 90.9696 68.5427 91.4346 66.7372 91.7501Z" fill="#D6B66B"/>
<path d="M31.9171 69.0901L31.8271 80.3201C31.8179 81.2049 32.0253 82.0786 32.4315 82.8647C32.8377 83.6509 33.4301 84.3257 34.1571 84.8301L39.4571 88.5201V69.0901H31.9171Z" fill="#D6B66B"/>
<path d="M65.8067 58.5101H43.2267V65.3101H58.8767C59.3717 64.5999 59.9235 63.931 60.5267 63.3101C61.8909 61.9393 63.5133 60.8526 65.3001 60.1128C67.087 59.373 69.0027 58.9948 70.9367 59.0001C71.3067 59.0001 71.6767 59.0001 72.0367 59.0001V49.3001C72.034 48.6166 71.7614 47.9619 71.2781 47.4787C70.7948 46.9954 70.1401 46.7227 69.4567 46.7201H33.4567C33.054 46.7156 32.6519 46.7525 32.2567 46.8301C32.1899 47.1594 32.1531 47.4941 32.1467 47.8301L32.0867 54.6501H65.8067V58.5101Z" fill="#D6B66B"/>
<path d="M39.4457 58.51H32.0157L31.9557 65.31H39.4457V58.51Z" fill="#D6B66B"/>
<path d="M84.6673 68.68C86.1184 68.363 87.4375 67.6092 88.4473 66.52L97.7073 56.52L99.7873 54.28L101.867 52.04L117.657 35.04C118.565 34.0933 119.064 32.8279 119.048 31.5165C119.031 30.2051 118.5 28.9527 117.568 28.0293C116.637 27.1059 115.38 26.5854 114.069 26.5799C112.757 26.5744 111.496 27.0844 110.557 28L97.1973 39.64L95.5873 41.05L93.9873 42.45L78.1773 56.27C77.1065 57.2678 76.3667 58.5694 76.0573 60C78.0504 60.734 79.8592 61.8944 81.3573 63.4C82.8488 64.8846 83.981 66.6906 84.6673 68.68Z" fill="#179999"/>
<path d="M70.9362 62.8201C68.4004 62.8164 65.9427 63.6969 63.9862 65.3101C63.7162 65.5401 63.4462 65.7801 63.1962 66.0301C62.8365 66.3968 62.5024 66.7877 62.1962 67.2001C61.7483 67.7865 61.366 68.4203 61.0562 69.0901C60.1882 70.91 59.842 72.9351 60.0562 74.9401C60.1905 76.2785 59.9722 77.6288 59.4231 78.8568C58.874 80.0848 58.0132 81.1477 56.9262 81.9401L53.0162 84.8001C52.7789 84.9719 52.593 85.2051 52.4785 85.4747C52.3639 85.7443 52.3251 86.0401 52.3662 86.3301C52.3997 86.6158 52.5105 86.8869 52.6867 87.1142C52.8629 87.3415 53.0979 87.5165 53.3662 87.6201C57.2062 89.1201 65.5662 89.0301 72.0362 86.3401C72.6811 86.0725 73.312 85.7721 73.9262 85.4401C74.583 85.0952 75.2146 84.7042 75.8162 84.2701C76.8477 83.5638 77.765 82.7039 78.5362 81.7201C80.6445 79.1255 81.7548 75.8621 81.6662 72.5201C81.6343 71.8443 81.5304 71.1738 81.3562 70.5201C81.1635 69.7441 80.8675 68.9974 80.4762 68.3001C79.9889 67.4488 79.3791 66.6738 78.6662 66.0001C77.9786 65.3097 77.2017 64.7144 76.3562 64.2301C76.175 64.1203 75.988 64.0201 75.7962 63.9301C75.5762 63.8201 75.3462 63.7101 75.1162 63.6201C74.7901 63.4809 74.4562 63.3607 74.1162 63.2601L73.9062 63.2001C73.3305 63.036 72.7416 62.9222 72.1462 62.8601H72.0162C71.6662 62.8401 71.3062 62.8201 70.9362 62.8201Z" fill="#FAF9F5"/>
<path d="M108.008 25.16L94.0076 37.38L70.5176 20.59C68.8906 19.4241 66.9392 18.7971 64.9376 18.7971C62.936 18.7971 60.9846 19.4241 59.3576 20.59L31.9776 40.1399C30.5497 41.1493 29.4285 42.5336 28.7376 44.1399C28.3537 45.0204 28.1075 45.9547 28.0076 46.91C28.0076 47.2199 27.9576 47.53 27.9576 47.84V49.9199V54.7V56.59V58.4799L27.8976 65.2799V67.1999V69.0899L27.6676 80.2799C27.6458 81.849 28.0102 83.3993 28.7287 84.7944C29.4471 86.1895 30.4976 87.3865 31.7876 88.28L39.4576 93.6299L41.3376 94.94L43.2276 96.2599L59.3876 107.53C61.0191 108.655 62.9568 109.252 64.9386 109.239C66.9204 109.227 68.8505 108.606 70.4676 107.46L72.0376 106.34L73.9276 105L75.8176 103.65L97.8176 87.91C99.0555 87.0159 100.064 85.8409 100.759 84.4814C101.454 83.122 101.817 81.6169 101.818 80.0899V57.61L120.378 37.61C121.909 35.9358 122.735 33.7361 122.687 31.4681C122.638 29.2 121.717 27.038 120.115 25.4313C118.514 23.8246 116.355 22.8967 114.087 22.8406C111.819 22.7845 109.617 23.6044 107.938 25.1299L108.008 25.16ZM61.7676 24C62.6918 23.3373 63.8004 22.9809 64.9376 22.9809C66.0748 22.9809 67.1834 23.3373 68.1076 24L90.8276 40.1899L75.8276 53.32V49.38C75.8289 48.5426 75.6651 47.7132 75.3456 46.9392C75.0261 46.1652 74.5571 45.4618 73.9654 44.8692C73.3738 44.2766 72.6711 43.8065 71.8976 43.4858C71.1241 43.165 70.295 42.9999 69.4576 43H35.0976L61.7676 24ZM72.0376 86.31C65.5676 89 57.2076 89.09 53.3676 87.59C53.0993 87.4863 52.8644 87.3114 52.6881 87.0841C52.5119 86.8568 52.4011 86.5856 52.3676 86.3C52.3265 86.0099 52.3653 85.7142 52.4799 85.4446C52.5944 85.175 52.7803 84.9417 53.0176 84.7699L56.9276 81.91C58.0146 81.1176 58.8754 80.0546 59.4245 78.8266C59.9736 77.5987 60.1919 76.2484 60.0576 74.91C59.8434 72.905 60.1896 70.8799 61.0576 69.0599C61.3674 68.3902 61.7497 67.7564 62.1976 67.1699C62.5038 66.7576 62.8379 66.3666 63.1976 66C63.4476 65.75 63.7176 65.5099 63.9876 65.2799C65.9441 63.6668 68.4018 62.7863 70.9376 62.79C71.3076 62.79 71.6776 62.79 72.0376 62.79H72.1676C72.763 62.8521 73.3519 62.9658 73.9276 63.13L74.1376 63.1899C74.4776 63.2906 74.8115 63.4108 75.1376 63.5499C75.3676 63.6399 75.5976 63.75 75.8176 63.86C76.0094 63.95 76.1964 64.0501 76.3776 64.16C77.2203 64.6673 77.9906 65.2863 78.6676 66C79.3557 66.6785 79.9418 67.4532 80.4076 68.3C80.7989 68.9973 81.0949 69.7439 81.2876 70.5199C81.4618 71.1737 81.5657 71.8442 81.5976 72.5199C81.6931 75.8455 80.6012 79.0963 78.5176 81.69C77.7464 82.6738 76.8291 83.5337 75.7976 84.2399C75.196 84.6741 74.5644 85.065 73.9076 85.41C73.2999 85.7414 72.6758 86.0417 72.0376 86.31ZM32.1076 47.91C32.114 47.574 32.1509 47.2393 32.2176 46.91C32.6128 46.8324 33.0149 46.7955 33.4176 46.7999H69.4176C70.1011 46.8026 70.7558 47.0753 71.239 47.5585C71.7223 48.0418 71.995 48.6965 71.9976 49.38V59.08C71.6376 59.08 71.2676 59.08 70.8976 59.08C68.9637 59.0747 67.0479 59.4528 65.2611 60.1926C63.4742 60.9324 61.8518 62.0192 60.4876 63.3899C59.8844 64.0109 59.3326 64.6797 58.8376 65.3899H43.2276V58.59H65.8076V54.7299H32.0476L32.1076 47.91ZM32.0176 58.5099H39.4576V65.3099H31.9576L32.0176 58.5099ZM34.1576 84.83C33.4306 84.3255 32.8381 83.6508 32.432 82.8646C32.0258 82.0784 31.8183 81.2048 31.8276 80.32L31.9176 69.0899H39.4576V88.5199L34.1576 84.83ZM68.0476 104C67.1292 104.649 66.0322 104.998 64.9076 104.998C63.783 104.998 62.686 104.649 61.7676 104L43.2276 91.16V69.0899H56.9676C56.2984 71.1011 56.0699 73.2327 56.2976 75.3399C56.3576 76.018 56.2387 76.6999 55.9527 77.3176C55.6666 77.9353 55.2235 78.4671 54.6676 78.86L50.7676 81.73C49.9996 82.3131 49.4005 83.0899 49.0315 83.9807C48.6625 84.8716 48.5369 85.8446 48.6676 86.8C48.7872 87.7573 49.1649 88.6642 49.7603 89.4234C50.3557 90.1826 51.1463 90.7656 52.0476 91.11C54.6624 92.0031 57.4155 92.423 60.1776 92.3499C62.3944 92.346 64.6064 92.1452 66.7876 91.75C68.5897 91.4339 70.3624 90.969 72.0876 90.36V101.19L68.0476 104ZM97.7276 80C97.7279 80.8666 97.5212 81.7207 97.1246 82.4913C96.728 83.2619 96.153 83.9265 95.4476 84.4299L75.8176 98.4299V88.6799C78.0185 87.5274 79.9587 85.9344 81.5176 84C83.9887 80.9584 85.372 77.1781 85.4476 73.26C85.4476 72.96 85.4476 72.66 85.4476 72.37C87.682 71.9053 89.7142 70.7511 91.2576 69.07L97.7576 62.07L97.7276 80ZM117.728 35L101.938 52L99.8076 54.2999L97.7276 56.54L88.4676 66.54C87.4498 67.6254 86.1234 68.3723 84.6676 68.68C83.9823 66.6708 82.8428 64.8468 81.3376 63.3499C79.8395 61.8443 78.0307 60.684 76.0376 59.95C76.3564 58.5373 77.0955 57.2544 78.1576 56.27L93.9876 42.45L95.5876 41.0499L97.1976 39.6399L110.518 28C111.455 27.0518 112.731 26.5149 114.064 26.5074C115.398 26.4999 116.679 27.0224 117.628 27.96C118.576 28.8975 119.113 30.1733 119.12 31.5067C119.128 32.84 118.605 34.1218 117.668 35.07L117.728 35Z" fill="#0B7373"/>
</svg>
